<?xml version="1.0" encoding="UTF-8" standalone="no"?>
<svg
   xmlns:dc="http://purl.org/dc/elements/1.1/"
   xmlns:cc="http://creativecommons.org/ns#"
   xmlns:rdf="http://www.w3.org/1999/02/22-rdf-syntax-ns#"
   xmlns:svg="http://www.w3.org/2000/svg"
   xmlns="http://www.w3.org/2000/svg"
   xmlns:sodipodi="http://sodipodi.sourceforge.net/DTD/sodipodi-0.dtd"
   xmlns:inkscape="http://www.inkscape.org/namespaces/inkscape"
   height="32"
   id="icon"
   viewBox="0 0 32 32"
   width="32"
   version="1.1"
   sodipodi:docname="cambios2.svg"
   inkscape:version="0.92.4 (5da689c313, 2019-01-14)">
  <metadata
     id="metadata3210">
    <rdf:RDF>
      <cc:Work
         rdf:about="">
        <dc:format>image/svg+xml</dc:format>
        <dc:type
           rdf:resource="http://purl.org/dc/dcmitype/StillImage" />
        <dc:title></dc:title>
      </cc:Work>
    </rdf:RDF>
  </metadata>
  <sodipodi:namedview
     pagecolor="#ffffff"
     bordercolor="#666666"
     borderopacity="1"
     objecttolerance="10"
     gridtolerance="10"
     guidetolerance="10"
     inkscape:pageopacity="0"
     inkscape:pageshadow="2"
     inkscape:window-width="1920"
     inkscape:window-height="1001"
     id="namedview3208"
     showgrid="false"
     inkscape:zoom="7.375"
     inkscape:cx="16"
     inkscape:cy="16"
     inkscape:window-x="-9"
     inkscape:window-y="-9"
     inkscape:window-maximized="1"
     inkscape:current-layer="icon" />
  <defs
     id="defs3196">
    <style
       id="style3194">.cls-1{fill:none;}</style>
  </defs>
  <path
     d="M24,24v2h2.4592A5.94,5.94,0,0,1,22,28a6.0066,6.0066,0,0,1-6-6H14a7.9841,7.9841,0,0,0,14,5.2651V30h2V24Z"
     id="path3200"
     style="fill:#ffffff;fill-opacity:1;stroke:none" />
  <path
     d="M22,14a8.04,8.04,0,0,0-6,2.7349V14H14v6h6V18H17.5408A5.94,5.94,0,0,1,22,16a6.0066,6.0066,0,0,1,6,6h2A8.0092,8.0092,0,0,0,22,14Z"
     id="path3202"
     style="fill:#ffffff;fill-opacity:1;stroke:none" />
  <path
     d="M12,28H6V24H8V22H6V17H8V15H6V10H8V8H6V4H24v8h2V4a2,2,0,0,0-2-2H6A2,2,0,0,0,4,4V8H2v2H4v5H2v2H4v5H2v2H4v4a2,2,0,0,0,2,2h6Z"
     id="path3204"
     style="fill:#ffffff;fill-opacity:1;stroke:none" />
  <rect
     class="cls-1"
     data-name="&lt;Transparent Rectangle&gt;"
     height="32"
     id="_Transparent_Rectangle_"
     width="32" />
</svg>
