<?xml version="1.0" encoding="UTF-8" standalone="no"?>
<svg
   xmlns:dc="http://purl.org/dc/elements/1.1/"
   xmlns:cc="http://creativecommons.org/ns#"
   xmlns:rdf="http://www.w3.org/1999/02/22-rdf-syntax-ns#"
   xmlns:svg="http://www.w3.org/2000/svg"
   xmlns="http://www.w3.org/2000/svg"
   xmlns:sodipodi="http://sodipodi.sourceforge.net/DTD/sodipodi-0.dtd"
   xmlns:inkscape="http://www.inkscape.org/namespaces/inkscape"
   width="16"
   height="16"
   fill="currentColor"
   class="bi bi-router"
   viewBox="0 0 16 16"
   version="1.1"
   id="svg3739"
   sodipodi:docname="router.svg"
   inkscape:version="0.92.4 (5da689c313, 2019-01-14)">
  <metadata
     id="metadata3745">
    <rdf:RDF>
      <cc:Work
         rdf:about="">
        <dc:format>image/svg+xml</dc:format>
        <dc:type
           rdf:resource="http://purl.org/dc/dcmitype/StillImage" />
      </cc:Work>
    </rdf:RDF>
  </metadata>
  <defs
     id="defs3743" />
  <sodipodi:namedview
     pagecolor="#ffffff"
     bordercolor="#666666"
     borderopacity="1"
     objecttolerance="10"
     gridtolerance="10"
     guidetolerance="10"
     inkscape:pageopacity="0"
     inkscape:pageshadow="2"
     inkscape:window-width="1920"
     inkscape:window-height="1001"
     id="namedview3741"
     showgrid="false"
     inkscape:zoom="64"
     inkscape:cx="10.79591"
     inkscape:cy="6.5576414"
     inkscape:window-x="-9"
     inkscape:window-y="-9"
     inkscape:window-maximized="1"
     inkscape:current-layer="svg3739" />
  <path
     id="path3733"
     d="m 6.2578125,3.8574219 -0.00195,0.00195 c 0.00328,-4.335e-4 0.00648,-0.00158 0.00977,-0.00195 -0.00165,-0.00164 -0.00651,0.0019 -0.00781,0 z M 2.4785156,10 A 0.50011538,0.50011538 0 0 0 2.5,11 a 0.5,0.5 0 0 0 0,-1 0.5,0.5 0 0 0 -0.021484,0 z m 5.0078125,0 A 0.5,0.5 0 0 0 7,10.5 0.5,0.5 0 0 0 8,10.5 0.5,0.5 0 0 0 7.4863281,10 Z m 1.9921875,0 A 0.50011538,0.50011538 0 0 0 9.5,11 a 0.5,0.5 0 0 0 0,-1 0.5,0.5 0 0 0 -0.021484,0 z m 2.0078124,0 A 0.5,0.5 0 0 0 11,10.5 a 0.5,0.5 0 0 0 1,0 0.5,0.5 0 0 0 -0.513672,-0.5 z m 2,0 A 0.5,0.5 0 0 0 13,10.5 a 0.5,0.5 0 0 0 1,0 0.5,0.5 0 0 0 -0.513672,-0.5 z"
     style="fill:#ffffff;fill-opacity:1;stroke:none" />
  <path
     id="path3735"
     d="M 2.4882812,1.9824219 A 0.5,0.5 0 0 0 2.0253906,2.6582031 L 3.8066406,8 H 1.5 A 1.5,1.5 0 0 0 0,9.5 v 2 A 1.5,1.5 0 0 0 1.5,13 H 2 a 0.5,0.5 0 0 0 0.5,0.5 h 2 A 0.5,0.5 0 0 0 5,13 h 6 a 0.5,0.5 0 0 0 0.5,0.5 h 2 A 0.5,0.5 0 0 0 14,13 h 0.5 A 1.5,1.5 0 0 0 16,11.5 v -2 A 1.5,1.5 0 0 0 14.5,8 h -2.306641 l 1.78125,-5.3417969 A 0.50028184,0.50028184 0 1 0 13.025391,2.3417969 L 11.140625,8 H 4.859375 L 2.9746094,2.3417969 A 0.5,0.5 0 0 0 2.4882812,1.9824219 Z M 1.5,9 h 13 A 0.5,0.5 0 0 1 15,9.5 v 2 A 0.5,0.5 0 0 1 14.5,12 H 1.5 A 0.5,0.5 0 0 1 1,11.5 v -2 A 0.5,0.5 0 0 1 1.5,9 Z"
     style="fill:#ffffff;fill-opacity:1;stroke:none" />
</svg>
