<?xml version="1.0" encoding="UTF-8" standalone="no"?>
<svg
   xmlns:dc="http://purl.org/dc/elements/1.1/"
   xmlns:cc="http://creativecommons.org/ns#"
   xmlns:rdf="http://www.w3.org/1999/02/22-rdf-syntax-ns#"
   xmlns:svg="http://www.w3.org/2000/svg"
   xmlns="http://www.w3.org/2000/svg"
   xmlns:sodipodi="http://sodipodi.sourceforge.net/DTD/sodipodi-0.dtd"
   xmlns:inkscape="http://www.inkscape.org/namespaces/inkscape"
   width="16"
   height="16"
   fill="currentColor"
   class="bi bi-clipboard2-data-fill"
   viewBox="0 0 16 16"
   version="1.1"
   id="svg831"
   sodipodi:docname="incidentes-white.svg"
   inkscape:version="0.92.4 (5da689c313, 2019-01-14)">
  <metadata
     id="metadata837">
    <rdf:RDF>
      <cc:Work
         rdf:about="">
        <dc:format>image/svg+xml</dc:format>
        <dc:type
           rdf:resource="http://purl.org/dc/dcmitype/StillImage" />
        <dc:title />
      </cc:Work>
    </rdf:RDF>
  </metadata>
  <defs
     id="defs835" />
  <sodipodi:namedview
     pagecolor="#ffffff"
     bordercolor="#666666"
     borderopacity="1"
     objecttolerance="10"
     gridtolerance="10"
     guidetolerance="10"
     inkscape:pageopacity="0"
     inkscape:pageshadow="2"
     inkscape:window-width="1920"
     inkscape:window-height="1001"
     id="namedview833"
     showgrid="false"
     inkscape:zoom="50.5"
     inkscape:cx="4.5742574"
     inkscape:cy="8"
     inkscape:window-x="-9"
     inkscape:window-y="-9"
     inkscape:window-maximized="1"
     inkscape:current-layer="svg831" />
  <path
     d="M10 .5a.5.5 0 0 0-.5-.5h-3a.5.5 0 0 0-.5.5.5.5 0 0 1-.5.5.5.5 0 0 0-.5.5V2a.5.5 0 0 0 .5.5h5A.5.5 0 0 0 11 2v-.5a.5.5 0 0 0-.5-.5.5.5 0 0 1-.5-.5Z"
     id="path827"
     style="stroke:none;fill:#ffffff;fill-opacity:1" />
  <path
     d="M4.085 1H3.5A1.5 1.5 0 0 0 2 2.5v12A1.5 1.5 0 0 0 3.5 16h9a1.5 1.5 0 0 0 1.5-1.5v-12A1.5 1.5 0 0 0 12.5 1h-.585c.055.156.085.325.085.5V2a1.5 1.5 0 0 1-1.5 1.5h-5A1.5 1.5 0 0 1 4 2v-.5c0-.175.03-.344.085-.5ZM10 7a1 1 0 1 1 2 0v5a1 1 0 1 1-2 0V7Zm-6 4a1 1 0 1 1 2 0v1a1 1 0 1 1-2 0v-1Zm4-3a1 1 0 0 1 1 1v3a1 1 0 1 1-2 0V9a1 1 0 0 1 1-1Z"
     id="path829"
     style="stroke:none;fill:#ffffff;fill-opacity:1" />
</svg>
