<?xml version="1.0" encoding="UTF-8" standalone="no"?>
<svg
   xmlns:dc="http://purl.org/dc/elements/1.1/"
   xmlns:cc="http://creativecommons.org/ns#"
   xmlns:rdf="http://www.w3.org/1999/02/22-rdf-syntax-ns#"
   xmlns:svg="http://www.w3.org/2000/svg"
   xmlns="http://www.w3.org/2000/svg"
   xmlns:sodipodi="http://sodipodi.sourceforge.net/DTD/sodipodi-0.dtd"
   xmlns:inkscape="http://www.inkscape.org/namespaces/inkscape"
   height="512px"
   style="enable-background:new 0 0 512 512;"
   version="1.1"
   viewBox="0 0 512 512"
   width="512px"
   xml:space="preserve"
   id="svg835"
   sodipodi:docname="redes.svg"
   inkscape:version="0.92.4 (5da689c313, 2019-01-14)"><metadata
     id="metadata841"><rdf:RDF><cc:Work
         rdf:about=""><dc:format>image/svg+xml</dc:format><dc:type
           rdf:resource="http://purl.org/dc/dcmitype/StillImage" /><dc:title></dc:title></cc:Work></rdf:RDF></metadata><defs
     id="defs839" /><sodipodi:namedview
     pagecolor="#ffffff"
     bordercolor="#666666"
     borderopacity="1"
     objecttolerance="10"
     gridtolerance="10"
     guidetolerance="10"
     inkscape:pageopacity="0"
     inkscape:pageshadow="2"
     inkscape:window-width="1920"
     inkscape:window-height="1001"
     id="namedview837"
     showgrid="false"
     inkscape:zoom="1.578125"
     inkscape:cx="256"
     inkscape:cy="256"
     inkscape:window-x="-9"
     inkscape:window-y="-9"
     inkscape:window-maximized="1"
     inkscape:current-layer="svg835" /><g
     id="_x31_74_x2C__network_x2C__city_x2C__globe_x2C__hub_x2C__infrastructure"
     style="fill:#ffffff;fill-opacity:1;stroke:none"><g
       id="g831"
       style="fill:#ffffff;fill-opacity:1;stroke:none"><path
         d="M273.46,351.621c-0.268-10.706-1.741-20.764-4.131-29.7    c-8.907,1.533-17.814,2.389-26.721,2.565v27.135H273.46z M269.417,388.254c2.33-8.849,3.775-18.817,4.043-29.406h-30.852v26.869    C251.546,385.895,260.481,386.75,269.417,388.254z M242.608,425.388c7.668-1.711,14.718-8.789,20.116-19.349    c1.71-3.304,3.243-6.902,4.569-10.795c-8.226-1.357-16.456-2.153-24.685-2.301V425.388z M210.664,395.273    c1.358,3.893,2.864,7.492,4.545,10.766c5.426,10.56,12.477,17.608,20.145,19.349v-32.444    C227.124,393.121,218.894,393.887,210.664,395.273z M204.501,358.848c0.263,10.618,1.709,20.587,4.071,29.465    c8.907-1.533,17.842-2.418,26.781-2.596v-26.869H204.501z M208.629,321.891c-2.387,8.938-3.864,19.024-4.127,29.73h30.852v-27.135    C226.446,324.279,217.536,323.424,208.629,321.891z M235.354,285.082c-7.668,1.711-14.719,8.789-20.145,19.348    c-1.625,3.215-3.127,6.725-4.454,10.5c8.227,1.357,16.396,2.153,24.598,2.331V285.082z M262.724,304.43    c-5.397-10.559-12.448-17.637-20.116-19.348v32.179c8.17-0.178,16.368-0.944,24.598-2.302    C265.879,311.184,264.373,307.645,262.724,304.43z M203.585,313.573c1.506-4.483,3.247-8.671,5.191-12.446    c2.656-5.133,5.692-9.586,9.026-13.214c-10.971,3.45-20.794,9.497-28.729,17.431c-1.147,1.15-2.271,2.36-3.331,3.6    C191.699,310.801,197.63,312.335,203.585,313.573z M197.244,351.621c0.267-11.148,1.772-21.678,4.278-31.087    c-6.843-1.445-13.687-3.273-20.527-5.516c-7.286,10.471-11.799,23.035-12.477,36.603H197.244z M201.434,389.67    c-2.449-9.35-3.923-19.791-4.19-30.822h-28.726c0.677,13.479,5.131,25.926,12.329,36.367    C187.688,392.973,194.563,391.115,201.434,389.67z M217.803,422.556c-3.334-3.627-6.37-8.052-9.026-13.213    c-1.976-3.864-3.745-8.111-5.278-12.713c-5.987,1.239-11.975,2.803-17.962,4.689c1.12,1.299,2.299,2.596,3.538,3.806    C197.009,413.059,206.832,419.104,217.803,422.556z M274.463,396.602c-1.533,4.601-3.306,8.877-5.31,12.741    c-2.625,5.161-5.664,9.586-8.995,13.213c10.884-3.421,20.646-9.409,28.519-17.255l0.179-0.176    c1.239-1.239,2.418-2.507,3.569-3.835C286.438,399.402,280.45,397.84,274.463,396.602z M280.714,358.848    c-0.295,11.031-1.769,21.442-4.187,30.793c6.871,1.444,13.715,3.303,20.586,5.574c7.198-10.441,11.652-22.889,12.33-36.367    H280.714z M276.439,320.564c2.478,9.408,3.979,19.938,4.274,31.057h28.729c-0.709-13.567-5.223-26.103-12.478-36.603    C290.123,317.29,283.279,319.118,276.439,320.564z M260.158,287.913c3.331,3.628,6.37,8.081,8.995,13.214    c1.976,3.805,3.717,7.992,5.219,12.477c5.959-1.239,11.887-2.773,17.846-4.66c-1.063-1.239-2.183-2.449-3.362-3.6    C280.921,297.41,271.129,291.363,260.158,287.913z M326.994,326.758l0.705-0.178c0.769-0.266,1.445-0.678,2.035-1.209l0.147-0.177    c1.032-1.032,1.681-2.478,1.681-4.07c0-1.563-0.617-3.009-1.648-4.041c-1.064-1.062-2.479-1.681-4.071-1.681    c-1.594,0-3.04,0.648-4.071,1.681c-0.295,0.296-0.59,0.62-0.797,0.974l-0.027,0.029l-0.061,0.118l0,0l-0.031,0.029v0.03    l-0.027,0.029v0.029l0,0l-0.029,0.029l-0.031,0.029v0.029l-0.027,0.029l0,0v0.06h-0.032v0.03l-0.028,0.059l0,0l-0.027,0.029v0.029    l-0.031,0.029v0.029v0.029l-0.029,0.03l-0.031,0.06l0,0v0.029l-0.027,0.029v0.029l-0.028,0.029v0.029V319v0.03l-0.032,0.029v0.029    h-0.027v0.06l0,0l-0.031,0.029v0.029v0.029l-0.029,0.059l0,0v0.03l-0.027,0.029v0.029v0.03v0.029l-0.031,0.029v0.029v0.029    l-0.029,0.029v0.029v0.029l-0.031,0.061v0.029v0.029v0.029h-0.027v0.059l0,0v0.059v0.03h-0.028v0.059l0,0v0.06l0,0l-0.032,0.059    v0.029l0,0v0.06l-0.027,0.059v0.029v0.03v0.029l0,0v0.059l0,0l-0.031,0.059v0.029v0.029v0.03v0.03v0.029v0.029v0.029v0.029v0.029    l-0.029,0.059l0,0v0.06l0,0v0.029v0.06l0,0v0.059l0,0v0.059v0.03v0.029v0.029l0,0v0.089l0,0v0.059v0.029v0.059l0,0v0.061v0.029    v0.059l0,0l0.029,0.059l0,0v0.088l0,0v0.06l0,0v0.089l0,0l0.031,0.059l0,0v0.06v0.029v0.059l0,0l0.027,0.06v0.029v0.059l0,0    l0.032,0.059l0,0v0.09l0,0l0.028,0.059l0,0v0.059l0,0l0.027,0.088l0,0v0.06l0,0l0.031,0.06l0,0v0.088l0,0l0.029,0.059l0,0    l0.031,0.06l0,0l0.027,0.059v0.029v0.06l0,0l0.029,0.059l0,0l0.031,0.06l0,0l0.027,0.059v0.03l0.032,0.059l0,0v0.059l0,0    l0.028,0.059l0,0l0.027,0.059l0,0l0.031,0.061v0.029l0.029,0.059l0,0l0.031,0.059l0,0l0.027,0.06l0,0l0.028,0.059l0,0l0.06,0.06    l0,0l0.031,0.059l0,0l0.029,0.059l0,0l0.027,0.06l0,0l0.031,0.059l0,0l0.028,0.06l0,0l0.032,0.059l0,0l0.056,0.059l0,0    l0.032,0.059l0,0l0.027,0.061l0,0l0.06,0.059l0,0l0.028,0.059l0,0l0.031,0.059l0,0l0.061,0.06l0,0l0.027,0.059l0,0l0.06,0.03    v0.029l0.028,0.029l0,0l0.06,0.059l0,0l0.032,0.06l0,0l0.056,0.059l0,0l0.032,0.029v0.03l0.059,0.029l0,0l0.028,0.059l0,0    l0.06,0.059l0,0l0.028,0.029l0,0l0.06,0.06l0,0l0.06,0.06l0,0l0.028,0.029l0,0l0.06,0.059l0,0l0.06,0.029l0,0l0.028,0.059l0,0    l0.06,0.06l0,0l0.06,0.029l0,0l0.06,0.03v0.029l0.057,0.029l0,0l0.031,0.029v0.029l0.06,0.029l0,0l0.056,0.03l0,0l0.061,0.059l0,0    l0.06,0.029l0,0l0.06,0.03l0,0l0.06,0.059l0,0l0.056,0.029l0,0l0.061,0.029l0,0l0.059,0.029v0.029l0.061,0.03l0,0l0.06,0.029l0,0    l0.06,0.03l0,0l0.115,0.059v0.029h0.061v0.029l0.059,0.029l0,0l0.061,0.029l0,0l0.115,0.06l0,0l0.088,0.029l0,0l0.061,0.03l0,0    l0.059,0.029l0,0l0.061,0.029l0,0h0.059v0.029l0.148,0.029l0,0l0.056,0.029l0,0l0.06,0.029l0,0l0.147,0.03l0,0l0.06,0.029l0,0    l0.06,0.029l0,0h0.088l0,0l0.06,0.029l0,0h0.061v0.03h0.087l0,0h0.06v0.029h0.147v0.029h0.147l0,0l0.207,0.029l0,0    c0.235,0.029,0.502,0.059,0.737,0.059h0.06l0.617-0.059h0.088l0.268-0.029l0.059-0.029H326.994z M154.597,318.676l1.151,0.118    h0.147h0.06h0.028h0.06l0.147-0.029l0,0h0.06h0.028l0.562-0.089h0.028h0.028h0.032c1.12-0.236,2.124-0.796,2.888-1.563l0,0    l0.032-0.06l0,0l0.06-0.029v-0.029l0.028-0.03h0.028l0.032-0.059l0,0l0.06-0.059l0,0l0.028-0.029l0,0l0.06-0.059l0,0l0.028-0.061    l0,0l0.06-0.059l0,0l0.031-0.029l0.028-0.059h0.028l0.06-0.118l0,0c0.295-0.384,0.502-0.767,0.678-1.209l0,0l0.031-0.06l0,0    l0.028-0.059v-0.029l0.06-0.119l0,0l0.088-0.324l0,0l0.06-0.146l0,0v-0.06l0,0l0.028-0.089l0,0v-0.059l0,0l0.032-0.059l0,0v-0.089    l0,0l0.028-0.06l0,0v-0.059v-0.029l0.032-0.117v-0.029v-0.061l0,0v-0.059l0,0l0.028-0.088l0,0v-0.06l0,0v-0.088l0,0v-0.06v-0.088    l0.028-0.06v-0.089v-0.059v-0.088v-0.029v-0.029v-0.03v-0.06v-0.029v-0.029v-0.029l-0.028-0.059v-0.029v-0.03v-0.029v-0.059v-0.03    v-0.029v-0.029v-0.059v-0.03l-0.028-0.029v-0.029v-0.029l0,0v-0.06v-0.029v-0.029v-0.029l0,0l-0.032-0.059l0,0V312.1l0,0v-0.061    l0,0l-0.028-0.059v-0.029l0,0v-0.059l0,0l-0.032-0.029v-0.029v-0.03v-0.059l0,0l-0.028-0.03v-0.029v-0.059l0,0l-0.028-0.059v-0.03    l0,0v-0.059h-0.031v-0.029l-0.028-0.147l-0.032-0.029l0,0l-0.028-0.09v-0.029l-0.028-0.117l-0.031-0.029l-0.06-0.178l0,0    l-0.056-0.117v-0.029l-0.032-0.06l0,0l-0.028-0.059l-0.031-0.03l-0.028-0.088l0,0l-0.028-0.029v-0.029h-0.032v-0.06l-0.028-0.03    l0,0l-0.032-0.029v-0.029v-0.029l-0.028-0.029l0,0l-0.028-0.059l-0.032-0.029v-0.029l-0.028-0.03v-0.029l-0.06-0.06l0,0    l-0.028-0.059l-0.032-0.029v-0.029l-0.028-0.029h-0.032l-0.028-0.06l0,0l-0.028-0.059l-0.032-0.03v-0.029l-0.06-0.029v-0.029    l-0.028-0.06l-0.06-0.059l0,0l-0.028-0.03l-0.032-0.059h-0.028l-0.028-0.059l0,0l-0.06-0.059l0,0l-0.06-0.059l-0.032-0.03    l-0.028-0.06l0,0l-0.06-0.059l0,0l-0.06-0.029l-0.028-0.029v-0.029l-0.06-0.029v-0.03l-0.06-0.029v-0.029l-0.056-0.03l0,0    l-0.06-0.059l0,0l-0.06-0.059h-0.028l-0.032-0.029l-0.028-0.03l-0.031-0.029l-0.47-0.354l-0.06-0.029l-0.06-0.029l-0.116-0.059    l-0.06-0.029v-0.029l-0.06-0.03h-0.028l-0.031-0.029c-0.797-0.442-1.741-0.679-2.741-0.679c-1.565,0-3.011,0.649-4.043,1.682    c-1.06,1.032-1.681,2.448-1.681,4.041c0,1.592,0.649,3.037,1.681,4.07c0.534,0.531,1.151,0.973,1.86,1.268h0.028l0.119,0.029l0,0    c0.235,0.089,0.471,0.178,0.737,0.236l0,0L154.597,318.676z M158.783,308.176l0.06,0.029L158.783,308.176l-0.056-0.029l0,0    l-0.06-0.029L158.783,308.176z M158.843,308.205l0.06,0.029L158.843,308.205z M146.869,163.181h-1.12    c-16.077,0-30.645,6.519-41.177,17.048c-10.529,10.529-17.046,25.1-17.046,41.174c0,1.652,0.06,3.274,0.176,4.809    c0.147,1.682,0.354,3.244,0.589,4.777l0.032,0.68c-0.06,2.004-1.713,3.568-3.717,3.509h-0.386    c-15.986,0-30.494,6.43-40.995,16.871l-0.179,0.177c-10.528,10.529-17.045,25.1-17.045,41.175    c0,16.074,6.517,30.615,17.045,41.146c10.532,10.529,25.1,17.076,41.174,17.076h57.928l0.031-1.15l0,0v-0.117l0.028-0.089v-0.029    v-0.206V350l0.032-0.62v-0.029v-0.089l0.028-0.117l0,0v-0.119v-0.117l0,0l0.028-0.118v-0.089v-0.029    c0.119-1.799,0.294-3.598,0.501-5.367l0.032-0.119v-0.059v-0.177l0.028-0.089c0.235-1.828,0.53-3.627,0.856-5.427    c0.913-4.896,2.211-9.704,3.833-14.305c-0.354-0.295-0.677-0.591-0.972-0.885c-2.358-2.36-3.804-5.604-3.804-9.202    c0-3.569,1.446-6.813,3.804-9.173c2.331-2.36,5.605-3.806,9.174-3.806c1.12,0,2.211,0.148,3.274,0.414    c0.706-1.033,1.442-2.065,2.211-3.098l0.028-0.029l0,0l0.031-0.059l0.056-0.06l0.12-0.177l0.207-0.266l0.028-0.029l0.032-0.029    c4.422-5.84,9.525-11.179,15.158-15.898l0.06-0.059c1.919-1.622,3.952-3.156,5.987-4.602l0.386-0.265    c2.948-2.064,6.043-4.012,9.23-5.752c3.187-1.739,6.461-3.304,9.851-4.689l0.327-0.118c1.562-0.648,3.124-1.209,4.717-1.77h0.031    c0.678-0.266,1.386-0.472,2.092-0.707h0.032l0.207-0.09c0.204-0.059,0.382-0.117,0.558-0.146    c6.756-2.095,13.803-3.451,21.088-4.012l0.414-0.029h0.06h0.028l0.088-0.029h0.119h0.088l0.119-0.029h0.116    c1.565-0.119,3.159-0.178,4.752-0.207h0.088h0.087h0.028h0.119h0.12h0.204h0.119h0.088h0.087h0.032h0.116h0.091h0.116h0.12h0.087    h0.12h0.116h0.119h0.12h0.116h0.119c2.331,0.029,4.629,0.118,6.9,0.266l0.119,0.029c0.175,0,0.354,0,0.53,0.029    c7.317,0.59,14.424,2.035,21.208,4.159l0.383,0.118l0.147,0.059l0.088,0.029l0.238,0.059l0.088,0.06l0.116,0.03l0.119,0.029    l0.119,0.059l0,0l0.116,0.029l0.091,0.029l1.354,0.473l0,0l0.088,0.029l0.119,0.029l0.119,0.059l0.323,0.118l0.119,0.03l0,0    l0.116,0.029l0.088,0.059l0.119,0.029l0.119,0.029l0.116,0.06l0.091,0.029l0.116,0.029v0.029l0.119,0.03l0.115,0.029l0.092,0.059    l0.116,0.029l0.119,0.029l0.207,0.09l0,0l0.115,0.059c0.737,0.266,1.475,0.561,2.184,0.855l0.234,0.088    c4.692,1.947,9.206,4.247,13.48,6.843c1.916,1.18,3.805,2.419,5.664,3.745l0.354,0.236c2.004,1.416,4.04,3.009,5.928,4.602    l0.06,0.059c5.661,4.778,10.764,10.205,15.218,16.163l0.179,0.178l0.323,0.501l0.088,0.088l0.059,0.089l0.061,0.06l0.027,0.029    l0.061,0.088l0.059,0.118l0.148,0.177l0.059,0.089l0.061,0.118l0.056,0.059l0.032,0.029l0.059,0.089l0.411,0.561v0.029l0.06,0.089    c0.944,1.297,1.828,2.654,2.686,4.012l0.087,0.146c0.916,1.475,1.801,2.979,2.653,4.514c0.682-0.119,1.358-0.178,2.067-0.178    c3.569,0,6.812,1.445,9.17,3.805c2.362,2.359,3.808,5.604,3.808,9.173c0,3.599-1.445,6.843-3.808,9.202l-0.263,0.236    c-0.53,0.502-1.092,0.943-1.713,1.357c0.828,3.303,1.478,6.665,1.947,10.086l0.148,1.328l0.027,0.088    c0.299,2.271,0.621,5.162,0.621,7.433l0,0v0.147v0.029v0.029l0.028,0.561h91.994c16.074,0,30.617-6.547,41.146-17.076    c10.528-10.53,17.05-25.071,17.05-41.146c0-8.052-1.594-15.691-4.514-22.593c-3.008-7.138-7.405-13.568-12.862-18.936    c-0.972-0.826-1.442-2.153-1.179-3.48c0.533-2.418,0.915-4.808,1.179-7.197c0.238-2.359,0.354-4.807,0.354-7.373    c0-18.965-7.668-36.131-20.113-48.578c-12.416-12.417-29.585-20.115-48.55-20.115c-4.602,0-9.055,0.443-13.329,1.299    c-4.454,0.855-8.704,2.152-12.743,3.805c-0.59,0.235-1.268,0.354-1.947,0.235c-1.945-0.324-3.303-2.153-2.977-4.13    c0.264-1.74,0.498-3.598,0.646-5.516c0.12-1.77,0.207-3.627,0.207-5.515c0-18.995-7.696-36.161-20.112-48.577    c-12.42-12.418-29.586-20.115-48.579-20.115c-12.063,0-23.391,3.097-33.211,8.523c-10.177,5.634-18.789,13.803-24.983,23.625    l-0.028,0.06c-1.032,1.71-3.274,2.241-4.955,1.209c-4.513-2.772-9.409-4.926-14.6-6.4c-4.983-1.386-10.293-2.153-15.811-2.153    c-14.333,0-27.486,5.191-37.604,13.774c-10.325,8.73-17.551,21-19.85,34.892C150.171,161.883,148.669,163.181,146.869,163.181z     M158.608,308.088l0.06,0.029L158.608,308.088z"
         style="fill-rule:evenodd;clip-rule:evenodd;fill:#ffffff;fill-opacity:1;stroke:none"
         id="path829" /></g></g><g
     id="Layer_1" /></svg>