<?xml version="1.0" encoding="UTF-8" standalone="no"?>
<svg
   xmlns:dc="http://purl.org/dc/elements/1.1/"
   xmlns:cc="http://creativecommons.org/ns#"
   xmlns:rdf="http://www.w3.org/1999/02/22-rdf-syntax-ns#"
   xmlns:svg="http://www.w3.org/2000/svg"
   xmlns="http://www.w3.org/2000/svg"
   xmlns:sodipodi="http://sodipodi.sourceforge.net/DTD/sodipodi-0.dtd"
   xmlns:inkscape="http://www.inkscape.org/namespaces/inkscape"
   style="enable-background:new 0 0 24 24;"
   version="1.1"
   viewBox="0 0 24 24"
   xml:space="preserve"
   id="svg837"
   sodipodi:docname="salir.svg"
   inkscape:version="0.92.4 (5da689c313, 2019-01-14)"><metadata
     id="metadata843"><rdf:RDF><cc:Work
         rdf:about=""><dc:format>image/svg+xml</dc:format><dc:type
           rdf:resource="http://purl.org/dc/dcmitype/StillImage" /><dc:title></dc:title></cc:Work></rdf:RDF></metadata><defs
     id="defs841" /><sodipodi:namedview
     pagecolor="#ffffff"
     bordercolor="#666666"
     borderopacity="1"
     objecttolerance="10"
     gridtolerance="10"
     guidetolerance="10"
     inkscape:pageopacity="0"
     inkscape:pageshadow="2"
     inkscape:window-width="1920"
     inkscape:window-height="1001"
     id="namedview839"
     showgrid="false"
     inkscape:zoom="33.666667"
     inkscape:cx="12"
     inkscape:cy="12"
     inkscape:window-x="-9"
     inkscape:window-y="-9"
     inkscape:window-maximized="1"
     inkscape:current-layer="svg837" /><g
     id="info" /><g
     id="icons"
     style="fill:#ffffff;fill-opacity:1;stroke:none"><g
       id="exit2"
       style="fill:#ffffff;fill-opacity:1;stroke:none"><path
         d="M12,10c1.1,0,2-0.9,2-2V4c0-1.1-0.9-2-2-2s-2,0.9-2,2v4C10,9.1,10.9,10,12,10z"
         id="path831"
         style="fill:#ffffff;fill-opacity:1;stroke:none" /><path
         d="M19.1,4.9L19.1,4.9c-0.3-0.3-0.6-0.4-1.1-0.4c-0.8,0-1.5,0.7-1.5,1.5c0,0.4,0.2,0.8,0.4,1.1l0,0c0,0,0,0,0,0c0,0,0,0,0,0    c1.3,1.3,2,3,2,4.9c0,3.9-3.1,7-7,7s-7-3.1-7-7c0-1.9,0.8-3.7,2.1-4.9l0,0C7.3,6.8,7.5,6.4,7.5,6c0-0.8-0.7-1.5-1.5-1.5    c-0.4,0-0.8,0.2-1.1,0.4l0,0C3.1,6.7,2,9.2,2,12c0,5.5,4.5,10,10,10s10-4.5,10-10C22,9.2,20.9,6.7,19.1,4.9z"
         id="path833"
         style="fill:#ffffff;fill-opacity:1;stroke:none" /></g></g></svg>