<?xml version="1.0" encoding="UTF-8" standalone="no"?>
<svg
   xmlns:dc="http://purl.org/dc/elements/1.1/"
   xmlns:cc="http://creativecommons.org/ns#"
   xmlns:rdf="http://www.w3.org/1999/02/22-rdf-syntax-ns#"
   xmlns:svg="http://www.w3.org/2000/svg"
   xmlns="http://www.w3.org/2000/svg"
   xmlns:sodipodi="http://sodipodi.sourceforge.net/DTD/sodipodi-0.dtd"
   xmlns:inkscape="http://www.inkscape.org/namespaces/inkscape"
   width="16"
   height="16"
   fill="currentColor"
   class="bi bi-shop"
   viewBox="0 0 16 16"
   version="1.1"
   id="svg851"
   sodipodi:docname="shop.svg"
   inkscape:version="0.92.4 (5da689c313, 2019-01-14)">
  <metadata
     id="metadata857">
    <rdf:RDF>
      <cc:Work
         rdf:about="">
        <dc:format>image/svg+xml</dc:format>
        <dc:type
           rdf:resource="http://purl.org/dc/dcmitype/StillImage" />
      </cc:Work>
    </rdf:RDF>
  </metadata>
  <defs
     id="defs855" />
  <sodipodi:namedview
     pagecolor="#ffffff"
     bordercolor="#666666"
     borderopacity="1"
     objecttolerance="10"
     gridtolerance="10"
     guidetolerance="10"
     inkscape:pageopacity="0"
     inkscape:pageshadow="2"
     inkscape:window-width="1920"
     inkscape:window-height="1001"
     id="namedview853"
     showgrid="false"
     inkscape:zoom="29.5"
     inkscape:cx="6.9694962"
     inkscape:cy="13.312024"
     inkscape:window-x="-9"
     inkscape:window-y="-9"
     inkscape:window-maximized="1"
     inkscape:current-layer="svg851" />
  <path
     d="M2.97 1.35A1 1 0 0 1 3.73 1h8.54a1 1 0 0 1 .76.35l2.609 3.044A1.5 1.5 0 0 1 16 5.37v.255a2.375 2.375 0 0 1-4.25 1.458A2.371 2.371 0 0 1 9.875 8 2.37 2.37 0 0 1 8 7.083 2.37 2.37 0 0 1 6.125 8a2.37 2.37 0 0 1-1.875-.917A2.375 2.375 0 0 1 0 5.625V5.37a1.5 1.5 0 0 1 .361-.976l2.61-3.045zm1.78 4.275a1.375 1.375 0 0 0 2.75 0 .5.5 0 0 1 1 0 1.375 1.375 0 0 0 2.75 0 .5.5 0 0 1 1 0 1.375 1.375 0 1 0 2.75 0V5.37a.5.5 0 0 0-.12-.325L12.27 2H3.73L1.12 5.045A.5.5 0 0 0 1 5.37v.255a1.375 1.375 0 0 0 2.75 0 .5.5 0 0 1 1 0zM1.5 8.5A.5.5 0 0 1 2 9v6h1v-5a1 1 0 0 1 1-1h3a1 1 0 0 1 1 1v5h6V9a.5.5 0 0 1 1 0v6h.5a.5.5 0 0 1 0 1H.5a.5.5 0 0 1 0-1H1V9a.5.5 0 0 1 .5-.5zM4 15h3v-5H4v5zm5-5a1 1 0 0 1 1-1h2a1 1 0 0 1 1 1v3a1 1 0 0 1-1 1h-2a1 1 0 0 1-1-1v-3zm3 0h-2v3h2v-3z"
     id="path849"
     style="fill:#ffffff;fill-opacity:1;stroke:none" />
</svg>
