<?xml version="1.0" encoding="UTF-8" standalone="no"?>
<svg
   xmlns:dc="http://purl.org/dc/elements/1.1/"
   xmlns:cc="http://creativecommons.org/ns#"
   xmlns:rdf="http://www.w3.org/1999/02/22-rdf-syntax-ns#"
   xmlns:svg="http://www.w3.org/2000/svg"
   xmlns="http://www.w3.org/2000/svg"
   xmlns:sodipodi="http://sodipodi.sourceforge.net/DTD/sodipodi-0.dtd"
   xmlns:inkscape="http://www.inkscape.org/namespaces/inkscape"
   width="16"
   height="16"
   fill="currentColor"
   class="bi bi-cash-coin"
   viewBox="0 0 16 16"
   version="1.1"
   id="svg867"
   sodipodi:docname="VM-white.svg"
   inkscape:version="0.92.4 (5da689c313, 2019-01-14)">
  <metadata
     id="metadata873">
    <rdf:RDF>
      <cc:Work
         rdf:about="">
        <dc:format>image/svg+xml</dc:format>
        <dc:type
           rdf:resource="http://purl.org/dc/dcmitype/StillImage" />
        <dc:title />
      </cc:Work>
    </rdf:RDF>
  </metadata>
  <defs
     id="defs871" />
  <sodipodi:namedview
     pagecolor="#ffffff"
     bordercolor="#666666"
     borderopacity="1"
     objecttolerance="10"
     gridtolerance="10"
     guidetolerance="10"
     inkscape:pageopacity="0"
     inkscape:pageshadow="2"
     inkscape:window-width="1920"
     inkscape:window-height="1001"
     id="namedview869"
     showgrid="false"
     inkscape:zoom="41.7193"
     inkscape:cx="1.0241581"
     inkscape:cy="9.4325928"
     inkscape:window-x="-9"
     inkscape:window-y="-9"
     inkscape:window-maximized="1"
     inkscape:current-layer="svg867" />
  <path
     fill-rule="evenodd"
     d="M11 15a4 4 0 1 0 0-8 4 4 0 0 0 0 8zm5-4a5 5 0 1 1-10 0 5 5 0 0 1 10 0z"
     id="path859"
     style="stroke:none;fill:#ffffff;fill-opacity:1" />
  <path
     d="M9.438 11.944c.047.596.518 1.06 1.363 1.116v.44h.375v-.443c.875-.061 1.386-.529 1.386-1.207 0-.618-.39-.936-1.09-1.1l-.296-.07v-1.2c.376.043.614.248.671.532h.658c-.047-.575-.54-1.024-1.329-1.073V8.5h-.375v.45c-.747.073-1.255.522-1.255 1.158 0 .562.378.92 1.007 1.066l.248.061v1.272c-.384-.058-.639-.27-.696-.563h-.668zm1.36-1.354c-.369-.085-.569-.26-.569-.522 0-.294.216-.514.572-.578v1.1h-.003zm.432.746c.449.104.655.272.655.569 0 .339-.257.571-.709.614v-1.195l.054.012z"
     id="path861"
     style="fill:#ffffff;fill-opacity:1;stroke:none" />
  <path
     d="M1 0a1 1 0 0 0-1 1v8a1 1 0 0 0 1 1h4.083c.058-.344.145-.678.258-1H3a2 2 0 0 0-2-2V3a2 2 0 0 0 2-2h10a2 2 0 0 0 2 2v3.528c.38.34.717.728 1 1.154V1a1 1 0 0 0-1-1H1z"
     id="path863"
     style="stroke:none;fill:#ffffff;fill-opacity:1" />
  <path
     d="M9.998 5.083 10 5a2 2 0 1 0-3.132 1.65 5.982 5.982 0 0 1 3.13-1.567z"
     id="path865"
     style="fill:#ffffff;fill-opacity:1;stroke:none" />
</svg>
