<?xml version="1.0" encoding="UTF-8" standalone="no"?>
<svg
   xmlns:dc="http://purl.org/dc/elements/1.1/"
   xmlns:cc="http://creativecommons.org/ns#"
   xmlns:rdf="http://www.w3.org/1999/02/22-rdf-syntax-ns#"
   xmlns:svg="http://www.w3.org/2000/svg"
   xmlns="http://www.w3.org/2000/svg"
   xmlns:sodipodi="http://sodipodi.sourceforge.net/DTD/sodipodi-0.dtd"
   xmlns:inkscape="http://www.inkscape.org/namespaces/inkscape"
   width="16"
   height="16"
   fill="currentColor"
   class="bi bi-pc-display-horizontal"
   viewBox="0 0 16 16"
   version="1.1"
   id="svg6273"
   sodipodi:docname="vpn-white.svg"
   inkscape:version="0.92.4 (5da689c313, 2019-01-14)">
  <metadata
     id="metadata6279">
    <rdf:RDF>
      <cc:Work
         rdf:about="">
        <dc:format>image/svg+xml</dc:format>
        <dc:type
           rdf:resource="http://purl.org/dc/dcmitype/StillImage" />
        <dc:title />
      </cc:Work>
    </rdf:RDF>
  </metadata>
  <defs
     id="defs6277" />
  <sodipodi:namedview
     pagecolor="#ffffff"
     bordercolor="#666666"
     borderopacity="1"
     objecttolerance="10"
     gridtolerance="10"
     guidetolerance="10"
     inkscape:pageopacity="0"
     inkscape:pageshadow="2"
     inkscape:window-width="1920"
     inkscape:window-height="1001"
     id="namedview6275"
     showgrid="false"
     inkscape:zoom="14.75"
     inkscape:cx="-3.7288136"
     inkscape:cy="8"
     inkscape:window-x="-9"
     inkscape:window-y="-9"
     inkscape:window-maximized="1"
     inkscape:current-layer="svg6273" />
  <path
     d="M1.5 0A1.5 1.5 0 0 0 0 1.5v7A1.5 1.5 0 0 0 1.5 10H6v1H1a1 1 0 0 0-1 1v3a1 1 0 0 0 1 1h14a1 1 0 0 0 1-1v-3a1 1 0 0 0-1-1h-5v-1h4.5A1.5 1.5 0 0 0 16 8.5v-7A1.5 1.5 0 0 0 14.5 0h-13Zm0 1h13a.5.5 0 0 1 .5.5v7a.5.5 0 0 1-.5.5h-13a.5.5 0 0 1-.5-.5v-7a.5.5 0 0 1 .5-.5ZM12 12.5a.5.5 0 1 1 1 0 .5.5 0 0 1-1 0Zm2 0a.5.5 0 1 1 1 0 .5.5 0 0 1-1 0ZM1.5 12h5a.5.5 0 0 1 0 1h-5a.5.5 0 0 1 0-1ZM1 14.25a.25.25 0 0 1 .25-.25h5.5a.25.25 0 1 1 0 .5h-5.5a.25.25 0 0 1-.25-.25Z"
     id="path6271"
     style="fill:#ffffff;fill-opacity:1;stroke:none" />
</svg>
